<mxfile host="app.diagrams.net" modified="2020-11-16T09:31:01.854Z" agent="5.0 (Windows)" etag="F1Abas-ZAEI_pOctDeya" version="13.9.9" type="github">
  <diagram name="Page-1" id="edf60f1a-56cd-e834-aa8a-f176f3a09ee4">
    <mxGraphModel dx="1185" dy="644" grid="1" gridSize="10" guides="1" tooltips="1" connect="1" arrows="1" fold="1" page="1" pageScale="1" pageWidth="1100" pageHeight="850" background="#ffffff" math="0" shadow="0">
      <root>
        <mxCell id="0" />
        <mxCell id="1" parent="0" />
        <mxCell id="Y2lsLYGI2nnwo4hwXiAG-1" value="PC" style="rounded=1;whiteSpace=wrap;html=1;" vertex="1" parent="1">
          <mxGeometry x="160" y="100" width="110" height="30" as="geometry" />
        </mxCell>
        <mxCell id="Y2lsLYGI2nnwo4hwXiAG-2" value="IR" style="rounded=1;whiteSpace=wrap;html=1;" vertex="1" parent="1">
          <mxGeometry x="160" y="150" width="110" height="30" as="geometry" />
        </mxCell>
        <mxCell id="Y2lsLYGI2nnwo4hwXiAG-3" value="RA" style="rounded=1;whiteSpace=wrap;html=1;" vertex="1" parent="1">
          <mxGeometry x="160" y="200" width="110" height="30" as="geometry" />
        </mxCell>
        <mxCell id="Y2lsLYGI2nnwo4hwXiAG-4" value="RB" style="rounded=1;whiteSpace=wrap;html=1;" vertex="1" parent="1">
          <mxGeometry x="160" y="250" width="110" height="30" as="geometry" />
        </mxCell>
        <mxCell id="Y2lsLYGI2nnwo4hwXiAG-5" value="RC" style="rounded=1;whiteSpace=wrap;html=1;" vertex="1" parent="1">
          <mxGeometry x="160" y="300" width="110" height="30" as="geometry" />
        </mxCell>
        <mxCell id="Y2lsLYGI2nnwo4hwXiAG-28" value="" style="group" vertex="1" connectable="0" parent="1">
          <mxGeometry x="310" y="340" width="120" height="70" as="geometry" />
        </mxCell>
        <mxCell id="Y2lsLYGI2nnwo4hwXiAG-7" value="" style="shape=trapezoid;perimeter=trapezoidPerimeter;whiteSpace=wrap;html=1;fixedSize=1;rotation=-180;" vertex="1" parent="Y2lsLYGI2nnwo4hwXiAG-28">
          <mxGeometry width="52.5" height="16.47058823529412" as="geometry" />
        </mxCell>
        <mxCell id="Y2lsLYGI2nnwo4hwXiAG-9" value="" style="shape=trapezoid;perimeter=trapezoidPerimeter;whiteSpace=wrap;html=1;fixedSize=1;rotation=-180;" vertex="1" parent="Y2lsLYGI2nnwo4hwXiAG-28">
          <mxGeometry x="67.5" width="52.5" height="16.47058823529412" as="geometry" />
        </mxCell>
        <mxCell id="Y2lsLYGI2nnwo4hwXiAG-23" value="" style="group" vertex="1" connectable="0" parent="Y2lsLYGI2nnwo4hwXiAG-28">
          <mxGeometry x="22.5" y="39.99882352941176" width="75" height="32.94117647058824" as="geometry" />
        </mxCell>
        <mxCell id="Y2lsLYGI2nnwo4hwXiAG-14" value="" style="endArrow=none;html=1;" edge="1" parent="Y2lsLYGI2nnwo4hwXiAG-23">
          <mxGeometry width="50" height="50" relative="1" as="geometry">
            <mxPoint x="56.25" y="32.94117647058824" as="sourcePoint" />
            <mxPoint x="75" as="targetPoint" />
          </mxGeometry>
        </mxCell>
        <mxCell id="Y2lsLYGI2nnwo4hwXiAG-16" value="" style="endArrow=none;html=1;" edge="1" parent="Y2lsLYGI2nnwo4hwXiAG-23">
          <mxGeometry width="50" height="50" relative="1" as="geometry">
            <mxPoint x="56.25" y="32.94117647058824" as="sourcePoint" />
            <mxPoint x="18.75" y="32.94117647058824" as="targetPoint" />
          </mxGeometry>
        </mxCell>
        <mxCell id="Y2lsLYGI2nnwo4hwXiAG-17" value="" style="endArrow=none;html=1;" edge="1" parent="Y2lsLYGI2nnwo4hwXiAG-23">
          <mxGeometry width="50" height="50" relative="1" as="geometry">
            <mxPoint x="18.75" y="32.94117647058824" as="sourcePoint" />
            <mxPoint as="targetPoint" />
          </mxGeometry>
        </mxCell>
        <mxCell id="Y2lsLYGI2nnwo4hwXiAG-18" value="" style="endArrow=none;html=1;" edge="1" parent="Y2lsLYGI2nnwo4hwXiAG-23">
          <mxGeometry width="50" height="50" relative="1" as="geometry">
            <mxPoint x="56.25" as="sourcePoint" />
            <mxPoint x="75" as="targetPoint" />
          </mxGeometry>
        </mxCell>
        <mxCell id="Y2lsLYGI2nnwo4hwXiAG-19" value="" style="endArrow=none;html=1;" edge="1" parent="Y2lsLYGI2nnwo4hwXiAG-23">
          <mxGeometry width="50" height="50" relative="1" as="geometry">
            <mxPoint as="sourcePoint" />
            <mxPoint x="18.75" as="targetPoint" />
          </mxGeometry>
        </mxCell>
        <mxCell id="Y2lsLYGI2nnwo4hwXiAG-20" value="" style="endArrow=none;html=1;" edge="1" parent="Y2lsLYGI2nnwo4hwXiAG-23">
          <mxGeometry width="50" height="50" relative="1" as="geometry">
            <mxPoint x="18.75" as="sourcePoint" />
            <mxPoint x="28.125" y="16.47058823529412" as="targetPoint" />
          </mxGeometry>
        </mxCell>
        <mxCell id="Y2lsLYGI2nnwo4hwXiAG-21" value="" style="endArrow=none;html=1;" edge="1" parent="Y2lsLYGI2nnwo4hwXiAG-23">
          <mxGeometry width="50" height="50" relative="1" as="geometry">
            <mxPoint x="46.875" y="16.47058823529412" as="sourcePoint" />
            <mxPoint x="56.25" as="targetPoint" />
          </mxGeometry>
        </mxCell>
        <mxCell id="Y2lsLYGI2nnwo4hwXiAG-22" value="" style="endArrow=none;html=1;" edge="1" parent="Y2lsLYGI2nnwo4hwXiAG-23">
          <mxGeometry width="50" height="50" relative="1" as="geometry">
            <mxPoint x="28.125" y="16.47058823529412" as="sourcePoint" />
            <mxPoint x="46.875" y="16.47058823529412" as="targetPoint" />
          </mxGeometry>
        </mxCell>
        <mxCell id="Y2lsLYGI2nnwo4hwXiAG-30" value="" style="endArrow=classic;html=1;" edge="1" parent="Y2lsLYGI2nnwo4hwXiAG-28">
          <mxGeometry width="50" height="50" relative="1" as="geometry">
            <mxPoint x="26.180000000000007" y="16.470000000000027" as="sourcePoint" />
            <mxPoint x="26" y="40" as="targetPoint" />
          </mxGeometry>
        </mxCell>
        <mxCell id="Y2lsLYGI2nnwo4hwXiAG-31" value="" style="endArrow=classic;html=1;" edge="1" parent="Y2lsLYGI2nnwo4hwXiAG-28">
          <mxGeometry width="50" height="50" relative="1" as="geometry">
            <mxPoint x="93.84000000000003" y="16.470000000000027" as="sourcePoint" />
            <mxPoint x="93.65999999999997" y="40" as="targetPoint" />
          </mxGeometry>
        </mxCell>
        <mxCell id="Y2lsLYGI2nnwo4hwXiAG-33" value="" style="edgeStyle=segmentEdgeStyle;endArrow=classic;html=1;jumpSize=0;" edge="1" parent="1">
          <mxGeometry width="50" height="50" relative="1" as="geometry">
            <mxPoint x="370" y="440" as="sourcePoint" />
            <mxPoint x="102" y="200" as="targetPoint" />
          </mxGeometry>
        </mxCell>
        <mxCell id="Y2lsLYGI2nnwo4hwXiAG-95" value="C_Bus" style="edgeLabel;html=1;align=center;verticalAlign=middle;resizable=0;points=[];" vertex="1" connectable="0" parent="Y2lsLYGI2nnwo4hwXiAG-33">
          <mxGeometry x="-0.2205" y="2" relative="1" as="geometry">
            <mxPoint as="offset" />
          </mxGeometry>
        </mxCell>
        <mxCell id="Y2lsLYGI2nnwo4hwXiAG-46" value="" style="endArrow=none;html=1;strokeWidth=1;" edge="1" parent="1">
          <mxGeometry width="50" height="50" relative="1" as="geometry">
            <mxPoint x="370" y="440" as="sourcePoint" />
            <mxPoint x="370" y="410" as="targetPoint" />
          </mxGeometry>
        </mxCell>
        <mxCell id="Y2lsLYGI2nnwo4hwXiAG-48" value="" style="endArrow=classic;html=1;strokeWidth=1;entryX=0.005;entryY=0.43;entryDx=0;entryDy=0;entryPerimeter=0;" edge="1" parent="1" target="Y2lsLYGI2nnwo4hwXiAG-5">
          <mxGeometry width="50" height="50" relative="1" as="geometry">
            <mxPoint x="100" y="313" as="sourcePoint" />
            <mxPoint x="160" y="290" as="targetPoint" />
          </mxGeometry>
        </mxCell>
        <mxCell id="Y2lsLYGI2nnwo4hwXiAG-49" value="" style="endArrow=classic;html=1;strokeWidth=1;entryX=0.005;entryY=0.43;entryDx=0;entryDy=0;entryPerimeter=0;" edge="1" parent="1">
          <mxGeometry width="50" height="50" relative="1" as="geometry">
            <mxPoint x="99.45" y="264.86" as="sourcePoint" />
            <mxPoint x="159.99999999999994" y="264.7599999999999" as="targetPoint" />
          </mxGeometry>
        </mxCell>
        <mxCell id="Y2lsLYGI2nnwo4hwXiAG-50" value="" style="endArrow=classic;html=1;strokeWidth=1;entryX=0.005;entryY=0.43;entryDx=0;entryDy=0;entryPerimeter=0;" edge="1" parent="1">
          <mxGeometry width="50" height="50" relative="1" as="geometry">
            <mxPoint x="99.45" y="214.86" as="sourcePoint" />
            <mxPoint x="159.99999999999994" y="214.75999999999988" as="targetPoint" />
          </mxGeometry>
        </mxCell>
        <mxCell id="Y2lsLYGI2nnwo4hwXiAG-51" value="" style="endArrow=classic;html=1;strokeWidth=1;entryX=0.5;entryY=1;entryDx=0;entryDy=0;" edge="1" parent="1" target="Y2lsLYGI2nnwo4hwXiAG-7">
          <mxGeometry width="50" height="50" relative="1" as="geometry">
            <mxPoint x="336" y="210" as="sourcePoint" />
            <mxPoint x="360" y="150" as="targetPoint" />
          </mxGeometry>
        </mxCell>
        <mxCell id="Y2lsLYGI2nnwo4hwXiAG-97" value="B_bus" style="edgeLabel;html=1;align=center;verticalAlign=middle;resizable=0;points=[];" vertex="1" connectable="0" parent="Y2lsLYGI2nnwo4hwXiAG-51">
          <mxGeometry x="-0.4308" relative="1" as="geometry">
            <mxPoint as="offset" />
          </mxGeometry>
        </mxCell>
        <mxCell id="Y2lsLYGI2nnwo4hwXiAG-53" value="" style="endArrow=classic;html=1;strokeWidth=1;entryX=0.5;entryY=1;entryDx=0;entryDy=0;" edge="1" parent="1">
          <mxGeometry width="50" height="50" relative="1" as="geometry">
            <mxPoint x="400" y="210" as="sourcePoint" />
            <mxPoint x="400.2500000000001" y="340" as="targetPoint" />
          </mxGeometry>
        </mxCell>
        <mxCell id="Y2lsLYGI2nnwo4hwXiAG-96" value="A_Bus" style="edgeLabel;html=1;align=center;verticalAlign=middle;resizable=0;points=[];" vertex="1" connectable="0" parent="Y2lsLYGI2nnwo4hwXiAG-53">
          <mxGeometry x="-0.4615" y="1" relative="1" as="geometry">
            <mxPoint as="offset" />
          </mxGeometry>
        </mxCell>
        <mxCell id="Y2lsLYGI2nnwo4hwXiAG-54" value="" style="endArrow=classic;html=1;strokeWidth=1;" edge="1" parent="1">
          <mxGeometry width="50" height="50" relative="1" as="geometry">
            <mxPoint x="270.00000000000006" y="214.86" as="sourcePoint" />
            <mxPoint x="331" y="215" as="targetPoint" />
          </mxGeometry>
        </mxCell>
        <mxCell id="Y2lsLYGI2nnwo4hwXiAG-55" value="" style="endArrow=classic;html=1;strokeWidth=1;entryX=0.005;entryY=0.43;entryDx=0;entryDy=0;entryPerimeter=0;" edge="1" parent="1">
          <mxGeometry width="50" height="50" relative="1" as="geometry">
            <mxPoint x="270.00000000000006" y="264.86" as="sourcePoint" />
            <mxPoint x="330.55" y="264.7599999999999" as="targetPoint" />
          </mxGeometry>
        </mxCell>
        <mxCell id="Y2lsLYGI2nnwo4hwXiAG-56" value="" style="endArrow=classic;html=1;strokeWidth=1;entryX=0.005;entryY=0.43;entryDx=0;entryDy=0;entryPerimeter=0;" edge="1" parent="1">
          <mxGeometry width="50" height="50" relative="1" as="geometry">
            <mxPoint x="270.00000000000006" y="314.81" as="sourcePoint" />
            <mxPoint x="330.55" y="314.70999999999987" as="targetPoint" />
          </mxGeometry>
        </mxCell>
        <mxCell id="Y2lsLYGI2nnwo4hwXiAG-57" value="" style="endArrow=classic;html=1;strokeWidth=1;" edge="1" parent="1">
          <mxGeometry width="50" height="50" relative="1" as="geometry">
            <mxPoint x="270.00000000000006" y="220.10000000000002" as="sourcePoint" />
            <mxPoint x="400" y="220" as="targetPoint" />
          </mxGeometry>
        </mxCell>
        <mxCell id="Y2lsLYGI2nnwo4hwXiAG-58" value="" style="endArrow=classic;html=1;strokeWidth=1;" edge="1" parent="1">
          <mxGeometry width="50" height="50" relative="1" as="geometry">
            <mxPoint x="270" y="270.1" as="sourcePoint" />
            <mxPoint x="400" y="270" as="targetPoint" />
          </mxGeometry>
        </mxCell>
        <mxCell id="Y2lsLYGI2nnwo4hwXiAG-59" value="" style="endArrow=classic;html=1;strokeWidth=1;" edge="1" parent="1">
          <mxGeometry width="50" height="50" relative="1" as="geometry">
            <mxPoint x="270" y="320.1" as="sourcePoint" />
            <mxPoint x="400" y="320" as="targetPoint" />
          </mxGeometry>
        </mxCell>
        <mxCell id="Y2lsLYGI2nnwo4hwXiAG-79" value="Programable Memory (128KB)" style="rounded=1;whiteSpace=wrap;html=1;strokeWidth=1;" vertex="1" parent="1">
          <mxGeometry x="560" y="20" width="140" height="110" as="geometry" />
        </mxCell>
        <mxCell id="Y2lsLYGI2nnwo4hwXiAG-80" value="" style="edgeStyle=elbowEdgeStyle;elbow=horizontal;endArrow=classic;html=1;strokeWidth=1;entryX=-0.002;entryY=0.176;entryDx=0;entryDy=0;entryPerimeter=0;exitX=1;exitY=0.5;exitDx=0;exitDy=0;" edge="1" parent="1" source="Y2lsLYGI2nnwo4hwXiAG-1" target="Y2lsLYGI2nnwo4hwXiAG-79">
          <mxGeometry width="50" height="50" relative="1" as="geometry">
            <mxPoint x="260" y="100" as="sourcePoint" />
            <mxPoint x="310" y="50" as="targetPoint" />
          </mxGeometry>
        </mxCell>
        <mxCell id="Y2lsLYGI2nnwo4hwXiAG-98" value="Memory_address[15:0]" style="edgeLabel;html=1;align=center;verticalAlign=middle;resizable=0;points=[];" vertex="1" connectable="0" parent="Y2lsLYGI2nnwo4hwXiAG-80">
          <mxGeometry x="-0.469" y="5" relative="1" as="geometry">
            <mxPoint as="offset" />
          </mxGeometry>
        </mxCell>
        <mxCell id="Y2lsLYGI2nnwo4hwXiAG-82" value="data_path[15:0]" style="edgeStyle=elbowEdgeStyle;elbow=horizontal;endArrow=classic;html=1;strokeWidth=1;entryX=1.035;entryY=0.362;entryDx=0;entryDy=0;entryPerimeter=0;exitX=1;exitY=0.5;exitDx=0;exitDy=0;" edge="1" parent="1" target="Y2lsLYGI2nnwo4hwXiAG-2">
          <mxGeometry width="50" height="50" relative="1" as="geometry">
            <mxPoint x="560" y="90" as="sourcePoint" />
            <mxPoint x="270.28" y="165.64" as="targetPoint" />
            <Array as="points">
              <mxPoint x="470" y="130" />
            </Array>
          </mxGeometry>
        </mxCell>
        <mxCell id="Y2lsLYGI2nnwo4hwXiAG-84" value="Control Unit(width of 16bit )" style="rounded=1;whiteSpace=wrap;html=1;strokeWidth=1;" vertex="1" parent="1">
          <mxGeometry x="551" y="190" width="169" height="110" as="geometry" />
        </mxCell>
        <mxCell id="Y2lsLYGI2nnwo4hwXiAG-85" value="" style="edgeStyle=elbowEdgeStyle;elbow=horizontal;endArrow=classic;html=1;strokeWidth=1;exitX=1;exitY=0.75;exitDx=0;exitDy=0;" edge="1" parent="1" source="Y2lsLYGI2nnwo4hwXiAG-2">
          <mxGeometry width="50" height="50" relative="1" as="geometry">
            <mxPoint x="500" y="280" as="sourcePoint" />
            <mxPoint x="550" y="230" as="targetPoint" />
            <Array as="points">
              <mxPoint x="450" y="180" />
              <mxPoint x="470" y="180" />
              <mxPoint x="300" y="165" />
              <mxPoint x="280" y="170" />
              <mxPoint x="470" y="230" />
            </Array>
          </mxGeometry>
        </mxCell>
        <mxCell id="Y2lsLYGI2nnwo4hwXiAG-89" value="" style="edgeStyle=segmentEdgeStyle;endArrow=classic;html=1;strokeWidth=1;exitX=0.25;exitY=1;exitDx=0;exitDy=0;" edge="1" parent="1" source="Y2lsLYGI2nnwo4hwXiAG-84">
          <mxGeometry width="50" height="50" relative="1" as="geometry">
            <mxPoint x="590" y="300" as="sourcePoint" />
            <mxPoint x="400" y="400" as="targetPoint" />
            <Array as="points">
              <mxPoint x="590" y="300" />
              <mxPoint x="590" y="400" />
            </Array>
          </mxGeometry>
        </mxCell>
        <mxCell id="Y2lsLYGI2nnwo4hwXiAG-99" value="opcode[2:0]" style="edgeLabel;html=1;align=center;verticalAlign=middle;resizable=0;points=[];" vertex="1" connectable="0" parent="Y2lsLYGI2nnwo4hwXiAG-89">
          <mxGeometry x="0.4339" y="1" relative="1" as="geometry">
            <mxPoint as="offset" />
          </mxGeometry>
        </mxCell>
        <mxCell id="Y2lsLYGI2nnwo4hwXiAG-90" value="" style="edgeStyle=segmentEdgeStyle;endArrow=classic;html=1;strokeWidth=1;" edge="1" parent="1">
          <mxGeometry width="50" height="50" relative="1" as="geometry">
            <mxPoint x="610" y="300" as="sourcePoint" />
            <mxPoint x="420" y="350" as="targetPoint" />
            <Array as="points">
              <mxPoint x="610" y="350" />
            </Array>
          </mxGeometry>
        </mxCell>
        <mxCell id="Y2lsLYGI2nnwo4hwXiAG-101" value="A_sel[12:11]" style="edgeLabel;html=1;align=center;verticalAlign=middle;resizable=0;points=[];" vertex="1" connectable="0" parent="Y2lsLYGI2nnwo4hwXiAG-90">
          <mxGeometry x="0.4097" y="-2" relative="1" as="geometry">
            <mxPoint as="offset" />
          </mxGeometry>
        </mxCell>
        <mxCell id="Y2lsLYGI2nnwo4hwXiAG-91" value="" style="edgeStyle=elbowEdgeStyle;elbow=vertical;endArrow=classic;html=1;strokeWidth=1;entryX=0;entryY=0.25;entryDx=0;entryDy=0;" edge="1" parent="1" target="Y2lsLYGI2nnwo4hwXiAG-7">
          <mxGeometry width="50" height="50" relative="1" as="geometry">
            <mxPoint x="630" y="300" as="sourcePoint" />
            <mxPoint x="370" y="360" as="targetPoint" />
            <Array as="points">
              <mxPoint x="500" y="360" />
            </Array>
          </mxGeometry>
        </mxCell>
        <mxCell id="Y2lsLYGI2nnwo4hwXiAG-100" value="B_sel[10:9]" style="edgeLabel;html=1;align=center;verticalAlign=middle;resizable=0;points=[];" vertex="1" connectable="0" parent="Y2lsLYGI2nnwo4hwXiAG-91">
          <mxGeometry x="-0.7512" y="1" relative="1" as="geometry">
            <mxPoint as="offset" />
          </mxGeometry>
        </mxCell>
        <mxCell id="Y2lsLYGI2nnwo4hwXiAG-103" value="" style="edgeStyle=elbowEdgeStyle;elbow=vertical;endArrow=classic;html=1;strokeWidth=1;" edge="1" parent="1">
          <mxGeometry width="50" height="50" relative="1" as="geometry">
            <mxPoint x="20" y="450" as="sourcePoint" />
            <mxPoint x="180" y="130" as="targetPoint" />
            <Array as="points">
              <mxPoint x="100" y="140" />
            </Array>
          </mxGeometry>
        </mxCell>
        <mxCell id="Y2lsLYGI2nnwo4hwXiAG-120" value="Increment" style="edgeLabel;html=1;align=center;verticalAlign=middle;resizable=0;points=[];" vertex="1" connectable="0" parent="Y2lsLYGI2nnwo4hwXiAG-103">
          <mxGeometry x="0.6944" y="1" relative="1" as="geometry">
            <mxPoint as="offset" />
          </mxGeometry>
        </mxCell>
        <mxCell id="Y2lsLYGI2nnwo4hwXiAG-105" value="" style="edgeStyle=elbowEdgeStyle;elbow=vertical;endArrow=classic;html=1;strokeWidth=1;" edge="1" parent="1">
          <mxGeometry width="50" height="50" relative="1" as="geometry">
            <mxPoint x="30" y="450" as="sourcePoint" />
            <mxPoint x="180" y="180" as="targetPoint" />
            <Array as="points">
              <mxPoint x="100" y="190" />
            </Array>
          </mxGeometry>
        </mxCell>
        <mxCell id="Y2lsLYGI2nnwo4hwXiAG-121" value="IR_write_en" style="edgeLabel;html=1;align=center;verticalAlign=middle;resizable=0;points=[];" vertex="1" connectable="0" parent="Y2lsLYGI2nnwo4hwXiAG-105">
          <mxGeometry x="0.5556" y="-3" relative="1" as="geometry">
            <mxPoint x="13.33" y="-13" as="offset" />
          </mxGeometry>
        </mxCell>
        <mxCell id="Y2lsLYGI2nnwo4hwXiAG-106" value="" style="edgeStyle=elbowEdgeStyle;elbow=vertical;endArrow=classic;html=1;strokeWidth=1;" edge="1" parent="1">
          <mxGeometry width="50" height="50" relative="1" as="geometry">
            <mxPoint x="40" y="450" as="sourcePoint" />
            <mxPoint x="180" y="230" as="targetPoint" />
            <Array as="points">
              <mxPoint x="100" y="240" />
            </Array>
          </mxGeometry>
        </mxCell>
        <mxCell id="Y2lsLYGI2nnwo4hwXiAG-122" value="RA_write_en" style="edgeLabel;html=1;align=center;verticalAlign=middle;resizable=0;points=[];" vertex="1" connectable="0" parent="Y2lsLYGI2nnwo4hwXiAG-106">
          <mxGeometry x="0.3796" y="2" relative="1" as="geometry">
            <mxPoint x="31.67" y="-8" as="offset" />
          </mxGeometry>
        </mxCell>
        <mxCell id="Y2lsLYGI2nnwo4hwXiAG-107" value="" style="edgeStyle=elbowEdgeStyle;elbow=vertical;endArrow=classic;html=1;strokeWidth=1;" edge="1" parent="1">
          <mxGeometry width="50" height="50" relative="1" as="geometry">
            <mxPoint x="50" y="450" as="sourcePoint" />
            <mxPoint x="180" y="280" as="targetPoint" />
            <Array as="points">
              <mxPoint x="100" y="290" />
            </Array>
          </mxGeometry>
        </mxCell>
        <mxCell id="Y2lsLYGI2nnwo4hwXiAG-108" value="" style="edgeStyle=elbowEdgeStyle;elbow=vertical;endArrow=classic;html=1;strokeWidth=1;" edge="1" parent="1">
          <mxGeometry width="50" height="50" relative="1" as="geometry">
            <mxPoint x="60" y="450" as="sourcePoint" />
            <mxPoint x="180" y="330" as="targetPoint" />
            <Array as="points">
              <mxPoint x="100" y="340" />
            </Array>
          </mxGeometry>
        </mxCell>
        <mxCell id="Y2lsLYGI2nnwo4hwXiAG-113" value="" style="edgeStyle=segmentEdgeStyle;endArrow=classic;html=1;strokeWidth=1;exitX=0.54;exitY=0.995;exitDx=0;exitDy=0;exitPerimeter=0;" edge="1" parent="1" source="Y2lsLYGI2nnwo4hwXiAG-84">
          <mxGeometry width="50" height="50" relative="1" as="geometry">
            <mxPoint x="660" y="300" as="sourcePoint" />
            <mxPoint x="60" y="450" as="targetPoint" />
            <Array as="points">
              <mxPoint x="642" y="470" />
              <mxPoint x="60" y="470" />
            </Array>
          </mxGeometry>
        </mxCell>
        <mxCell id="Y2lsLYGI2nnwo4hwXiAG-114" value="" style="edgeStyle=segmentEdgeStyle;endArrow=classic;html=1;strokeWidth=1;" edge="1" parent="1">
          <mxGeometry width="50" height="50" relative="1" as="geometry">
            <mxPoint x="650" y="298" as="sourcePoint" />
            <mxPoint x="50" y="450" as="targetPoint" />
            <Array as="points">
              <mxPoint x="650" y="298" />
              <mxPoint x="650" y="481" />
              <mxPoint x="50" y="481" />
            </Array>
          </mxGeometry>
        </mxCell>
        <mxCell id="Y2lsLYGI2nnwo4hwXiAG-117" value="" style="edgeStyle=segmentEdgeStyle;endArrow=classic;html=1;strokeWidth=1;exitX=0.646;exitY=0.998;exitDx=0;exitDy=0;exitPerimeter=0;" edge="1" parent="1" source="Y2lsLYGI2nnwo4hwXiAG-84">
          <mxGeometry width="50" height="50" relative="1" as="geometry">
            <mxPoint x="660" y="310" as="sourcePoint" />
            <mxPoint x="40" y="450" as="targetPoint" />
            <Array as="points">
              <mxPoint x="660" y="493" />
              <mxPoint x="40" y="493" />
            </Array>
          </mxGeometry>
        </mxCell>
        <mxCell id="Y2lsLYGI2nnwo4hwXiAG-118" value="" style="edgeStyle=segmentEdgeStyle;endArrow=classic;html=1;strokeWidth=1;exitX=0.698;exitY=1.012;exitDx=0;exitDy=0;exitPerimeter=0;" edge="1" parent="1" source="Y2lsLYGI2nnwo4hwXiAG-84">
          <mxGeometry width="50" height="50" relative="1" as="geometry">
            <mxPoint x="670.3430000000001" y="310.00000000000006" as="sourcePoint" />
            <mxPoint x="30" y="450" as="targetPoint" />
            <Array as="points">
              <mxPoint x="670" y="301" />
              <mxPoint x="670" y="501" />
              <mxPoint x="30" y="501" />
            </Array>
          </mxGeometry>
        </mxCell>
        <mxCell id="Y2lsLYGI2nnwo4hwXiAG-119" value="" style="edgeStyle=segmentEdgeStyle;endArrow=classic;html=1;strokeWidth=1;exitX=0.761;exitY=0.994;exitDx=0;exitDy=0;exitPerimeter=0;" edge="1" parent="1" source="Y2lsLYGI2nnwo4hwXiAG-84">
          <mxGeometry width="50" height="50" relative="1" as="geometry">
            <mxPoint x="680" y="310" as="sourcePoint" />
            <mxPoint x="20" y="450" as="targetPoint" />
            <Array as="points">
              <mxPoint x="680" y="310" />
              <mxPoint x="680" y="310" />
              <mxPoint x="680" y="510" />
              <mxPoint x="20" y="510" />
            </Array>
          </mxGeometry>
        </mxCell>
        <mxCell id="Y2lsLYGI2nnwo4hwXiAG-123" value="RB_write_en" style="edgeLabel;html=1;align=center;verticalAlign=middle;resizable=0;points=[];" vertex="1" connectable="0" parent="1">
          <mxGeometry x="130.00333333333333" y="220" as="geometry">
            <mxPoint x="-20" y="58" as="offset" />
          </mxGeometry>
        </mxCell>
        <mxCell id="Y2lsLYGI2nnwo4hwXiAG-124" value="RC_write_en" style="edgeLabel;html=1;align=center;verticalAlign=middle;resizable=0;points=[];" vertex="1" connectable="0" parent="1">
          <mxGeometry x="110.00333333333333" y="330" as="geometry" />
        </mxCell>
      </root>
    </mxGraphModel>
  </diagram>
</mxfile>
